<svg xmlns="http://www.w3.org/2000/svg" viewBox="0 0 640 480" width="640" height="480" role="img">
<defs>
  <linearGradient id="bodyG" x1="0" y1="0" x2="1" y2="1">
    <stop offset="0" stop-color="#FFFFFF"/><stop offset="1" stop-color="#DDE7F7"/>
  </linearGradient>
  <linearGradient id="bodyG2" x1="0" y1="0" x2="0" y2="1">
    <stop offset="0" stop-color="#FFFFFF"/><stop offset="1" stop-color="#E7EEFA"/>
  </linearGradient>
  <linearGradient id="topG" x1="0" y1="0" x2="1" y2="0">
    <stop offset="0" stop-color="#FBFDFF"/><stop offset="1" stop-color="#E4ECF9"/>
  </linearGradient>
  <linearGradient id="navyG" x1="0" y1="0" x2="1" y2="1">
    <stop offset="0" stop-color="#1E417E"/><stop offset="1" stop-color="#0A1B3D"/>
  </linearGradient>
  <linearGradient id="cyanG" x1="0" y1="0" x2="1" y2="1">
    <stop offset="0" stop-color="#67E8F9"/><stop offset="1" stop-color="#0891B2"/>
  </linearGradient>
  <linearGradient id="blueG" x1="0" y1="0" x2="1" y2="1">
    <stop offset="0" stop-color="#60A5FA"/><stop offset="1" stop-color="#1D4ED8"/>
  </linearGradient>
  <linearGradient id="violetG" x1="0" y1="0" x2="1" y2="1">
    <stop offset="0" stop-color="#A78BFA"/><stop offset="1" stop-color="#6D28D9"/>
  </linearGradient>
  <linearGradient id="greenG" x1="0" y1="0" x2="1" y2="1">
    <stop offset="0" stop-color="#6EE7B7"/><stop offset="1" stop-color="#059669"/>
  </linearGradient>
  <linearGradient id="glassG" x1="0" y1="0" x2="0" y2="1">
    <stop offset="0" stop-color="#DBEAFE" stop-opacity="0.95"/><stop offset="1" stop-color="#93C5FD" stop-opacity="0.7"/>
  </linearGradient>
  <linearGradient id="waterG" x1="0" y1="0" x2="0" y2="1">
    <stop offset="0" stop-color="#7DD3FC"/><stop offset="1" stop-color="#0EA5E9"/>
  </linearGradient>
  <radialGradient id="gshadow">
    <stop offset="0" stop-color="#0A1B3D" stop-opacity="0.30"/>
    <stop offset="0.65" stop-color="#0A1B3D" stop-opacity="0.10"/>
    <stop offset="1" stop-color="#0A1B3D" stop-opacity="0"/>
  </radialGradient>
  <pattern id="mesh" width="15" height="15" patternUnits="userSpaceOnUse">
    <circle cx="7.5" cy="7.5" r="2.2" fill="#C4D2E9"/>
  </pattern>
</defs>
    <ellipse cx="330" cy="434" rx="232" ry="39" fill="url(#gshadow)"/>
    
    <rect x="92" y="96" width="274" height="98" rx="24" fill="url(#bodyG)" stroke="#C4D2E9" stroke-width="2"/>
    <rect x="108" y="112" width="84" height="12" rx="6" fill="url(#violetG)" />
    <rect x="318" y="116" width="38" height="20" rx="7" fill="url(#navyG)" /><rect x="325" y="122" width="24" height="5" rx="2.5" fill="#22D3EE" />
    <rect x="102" y="158" width="254" height="16" rx="8" fill="#D8E3F4" />
    <rect x="102" y="170" width="254" height="9" rx="4.5" fill="url(#violetG)" />
    <path d="M140 234 q 90 -9 180 0" stroke="#22D3EE" stroke-width="5" fill="none" stroke-linecap="round" opacity="0.70"/><path d="M140 249 q 90 9 180 0" stroke="#22D3EE" stroke-width="5" fill="none" stroke-linecap="round" opacity="0.52"/><path d="M140 264 q 90 -9 180 0" stroke="#22D3EE" stroke-width="5" fill="none" stroke-linecap="round" opacity="0.34"/>
    
    <path d="M474 108 L562 146 V234 C562 288 516 324 474 342 C432 324 386 288 386 234 V146 Z" fill="url(#navyG)" stroke="#1E417E" stroke-width="3"/>
    <path d="M430 232 L462 264 L522 196" stroke="#22D3EE" stroke-width="15" fill="none" stroke-linecap="round" stroke-linejoin="round"/>
    <rect x="409.84" y="263.92" width="12.32" height="18.48" rx="3.52" fill="url(#cyanG)" transform="rotate(0 416 322)"/><rect x="409.84" y="263.92" width="12.32" height="18.48" rx="3.52" fill="url(#cyanG)" transform="rotate(40 416 322)"/><rect x="409.84" y="263.92" width="12.32" height="18.48" rx="3.52" fill="url(#cyanG)" transform="rotate(80 416 322)"/><rect x="409.84" y="263.92" width="12.32" height="18.48" rx="3.52" fill="url(#cyanG)" transform="rotate(120 416 322)"/><rect x="409.84" y="263.92" width="12.32" height="18.48" rx="3.52" fill="url(#cyanG)" transform="rotate(160 416 322)"/><rect x="409.84" y="263.92" width="12.32" height="18.48" rx="3.52" fill="url(#cyanG)" transform="rotate(200 416 322)"/><rect x="409.84" y="263.92" width="12.32" height="18.48" rx="3.52" fill="url(#cyanG)" transform="rotate(240 416 322)"/><rect x="409.84" y="263.92" width="12.32" height="18.48" rx="3.52" fill="url(#cyanG)" transform="rotate(280 416 322)"/><rect x="409.84" y="263.92" width="12.32" height="18.48" rx="3.52" fill="url(#cyanG)" transform="rotate(320 416 322)"/><circle cx="416" cy="322" r="44" fill="url(#cyanG)" /><circle cx="416" cy="322" r="18.48" fill="#FFFFFF" />
    
    <rect x="92" y="44" width="231" height="36" rx="18" fill="url(#navyG)" /><text x="207.5" y="67.4" font-family="Inter, 'Segoe UI', Arial, sans-serif" font-size="15" font-weight="800" fill="#FFFFFF" text-anchor="middle" letter-spacing="1.2" opacity="1">COMPREHENSIVE AMC</text>
  </svg>